<svg xmlns="http://www.w3.org/2000/svg" viewBox="0 0 1000 250" width="1000" height="250" role="img" aria-label="Tayfun Danabas – Fullstack Developer from Herne, Germany">

  <defs>
    <linearGradient id="hd-bg" x1="0" y1="0" x2="1" y2="0.35">
      <stop offset="0" stop-color="#232C3A"/>
      <stop offset="0.55" stop-color="#2E3A4B"/>
      <stop offset="1" stop-color="#D99A2B"/>
    </linearGradient>
    <clipPath id="hd-round"><rect width="1000" height="250" rx="18"/></clipPath>
    <clipPath id="hd-type"><rect x="280" y="140" width="0" height="30">
      <animate attributeName="width" values="0;440;440;0" keyTimes="0;0.32;0.86;1" dur="9s" repeatCount="indefinite"/>
    </rect></clipPath>
    <filter id="hd-glow" x="-10%" y="-40%" width="120%" height="180%">
      <feGaussianBlur stdDeviation="7" result="b"/>
      <feColorMatrix in="b" type="matrix" values="0 0 0 0 0.85  0 0 0 0 0.6  0 0 0 0 0.17  0 0 0 0.55 0"/>
      <feMerge><feMergeNode/><feMergeNode in="SourceGraphic"/></feMerge>
    </filter>
  </defs>
  <g clip-path="url(#hd-round)">
    <path d="M0 0 L1000 0 L1000 203.4 L1000 203.4 L980 205.7 L960 208.5 L940 211.5 L920 214.3 L900 216.6 L880 218.2 L860 219.0 L840 218.7 L820 217.5 L800 215.5 L780 212.9 L760 210.0 L740 207.1 L720 204.5 L700 202.5 L680 201.3 L660 201.0 L640 201.8 L620 203.4 L600 205.7 L580 208.5 L560 211.5 L540 214.3 L520 216.6 L500 218.2 L480 219.0 L460 218.7 L440 217.5 L420 215.5 L400 212.9 L380 210.0 L360 207.1 L340 204.5 L320 202.5 L300 201.3 L280 201.0 L260 201.8 L240 203.4 L220 205.7 L200 208.5 L180 211.5 L160 214.3 L140 216.6 L120 218.2 L100 219.0 L80 218.7 L60 217.5 L40 215.5 L20 212.9 L0 210.0 Z" fill="#D99A2B" fill-opacity="0.35">
      <animate attributeName="d" values="M0 0 L1000 0 L1000 203.4 L1000 203.4 L980 205.7 L960 208.5 L940 211.5 L920 214.3 L900 216.6 L880 218.2 L860 219.0 L840 218.7 L820 217.5 L800 215.5 L780 212.9 L760 210.0 L740 207.1 L720 204.5 L700 202.5 L680 201.3 L660 201.0 L640 201.8 L620 203.4 L600 205.7 L580 208.5 L560 211.5 L540 214.3 L520 216.6 L500 218.2 L480 219.0 L460 218.7 L440 217.5 L420 215.5 L400 212.9 L380 210.0 L360 207.1 L340 204.5 L320 202.5 L300 201.3 L280 201.0 L260 201.8 L240 203.4 L220 205.7 L200 208.5 L180 211.5 L160 214.3 L140 216.6 L120 218.2 L100 219.0 L80 218.7 L60 217.5 L40 215.5 L20 212.9 L0 210.0 Z;M0 0 L1000 0 L1000 216.6 L1000 216.6 L980 214.3 L960 211.5 L940 208.5 L920 205.7 L900 203.4 L880 201.8 L860 201.0 L840 201.3 L820 202.5 L800 204.5 L780 207.1 L760 210.0 L740 212.9 L720 215.5 L700 217.5 L680 218.7 L660 219.0 L640 218.2 L620 216.6 L600 214.3 L580 211.5 L560 208.5 L540 205.7 L520 203.4 L500 201.8 L480 201.0 L460 201.3 L440 202.5 L420 204.5 L400 207.1 L380 210.0 L360 212.9 L340 215.5 L320 217.5 L300 218.7 L280 219.0 L260 218.2 L240 216.6 L220 214.3 L200 211.5 L180 208.5 L160 205.7 L140 203.4 L120 201.8 L100 201.0 L80 201.3 L60 202.5 L40 204.5 L20 207.1 L0 210.0 Z;M0 0 L1000 0 L1000 203.4 L1000 203.4 L980 205.7 L960 208.5 L940 211.5 L920 214.3 L900 216.6 L880 218.2 L860 219.0 L840 218.7 L820 217.5 L800 215.5 L780 212.9 L760 210.0 L740 207.1 L720 204.5 L700 202.5 L680 201.3 L660 201.0 L640 201.8 L620 203.4 L600 205.7 L580 208.5 L560 211.5 L540 214.3 L520 216.6 L500 218.2 L480 219.0 L460 218.7 L440 217.5 L420 215.5 L400 212.9 L380 210.0 L360 207.1 L340 204.5 L320 202.5 L300 201.3 L280 201.0 L260 201.8 L240 203.4 L220 205.7 L200 208.5 L180 211.5 L160 214.3 L140 216.6 L120 218.2 L100 219.0 L80 218.7 L60 217.5 L40 215.5 L20 212.9 L0 210.0 Z" dur="7s" repeatCount="indefinite"/>
    </path>
    <path d="M0 0 L1000 0 L1000 205.8 L1000 205.8 L980 204.0 L960 201.7 L940 199.0 L920 196.0 L900 193.0 L880 190.3 L860 188.0 L840 186.2 L820 185.2 L800 185.0 L780 185.6 L760 187.0 L740 189.1 L720 191.6 L700 194.5 L680 197.5 L660 200.4 L640 202.9 L620 205.0 L600 206.4 L580 207.0 L560 206.8 L540 205.8 L520 204.0 L500 201.7 L480 199.0 L460 196.0 L440 193.0 L420 190.3 L400 188.0 L380 186.2 L360 185.2 L340 185.0 L320 185.6 L300 187.0 L280 189.1 L260 191.6 L240 194.5 L220 197.5 L200 200.4 L180 202.9 L160 205.0 L140 206.4 L120 207.0 L100 206.8 L80 205.8 L60 204.0 L40 201.7 L20 199.0 L0 196.0 Z" fill="url(#hd-bg)">
      <animate attributeName="d" values="M0 0 L1000 0 L1000 205.8 L1000 205.8 L980 204.0 L960 201.7 L940 199.0 L920 196.0 L900 193.0 L880 190.3 L860 188.0 L840 186.2 L820 185.2 L800 185.0 L780 185.6 L760 187.0 L740 189.1 L720 191.6 L700 194.5 L680 197.5 L660 200.4 L640 202.9 L620 205.0 L600 206.4 L580 207.0 L560 206.8 L540 205.8 L520 204.0 L500 201.7 L480 199.0 L460 196.0 L440 193.0 L420 190.3 L400 188.0 L380 186.2 L360 185.2 L340 185.0 L320 185.6 L300 187.0 L280 189.1 L260 191.6 L240 194.5 L220 197.5 L200 200.4 L180 202.9 L160 205.0 L140 206.4 L120 207.0 L100 206.8 L80 205.8 L60 204.0 L40 201.7 L20 199.0 L0 196.0 Z;M0 0 L1000 0 L1000 186.2 L1000 186.2 L980 188.0 L960 190.3 L940 193.0 L920 196.0 L900 199.0 L880 201.7 L860 204.0 L840 205.8 L820 206.8 L800 207.0 L780 206.4 L760 205.0 L740 202.9 L720 200.4 L700 197.5 L680 194.5 L660 191.6 L640 189.1 L620 187.0 L600 185.6 L580 185.0 L560 185.2 L540 186.2 L520 188.0 L500 190.3 L480 193.0 L460 196.0 L440 199.0 L420 201.7 L400 204.0 L380 205.8 L360 206.8 L340 207.0 L320 206.4 L300 205.0 L280 202.9 L260 200.4 L240 197.5 L220 194.5 L200 191.6 L180 189.1 L160 187.0 L140 185.6 L120 185.0 L100 185.2 L80 186.2 L60 188.0 L40 190.3 L20 193.0 L0 196.0 Z;M0 0 L1000 0 L1000 205.8 L1000 205.8 L980 204.0 L960 201.7 L940 199.0 L920 196.0 L900 193.0 L880 190.3 L860 188.0 L840 186.2 L820 185.2 L800 185.0 L780 185.6 L760 187.0 L740 189.1 L720 191.6 L700 194.5 L680 197.5 L660 200.4 L640 202.9 L620 205.0 L600 206.4 L580 207.0 L560 206.8 L540 205.8 L520 204.0 L500 201.7 L480 199.0 L460 196.0 L440 193.0 L420 190.3 L400 188.0 L380 186.2 L360 185.2 L340 185.0 L320 185.6 L300 187.0 L280 189.1 L260 191.6 L240 194.5 L220 197.5 L200 200.4 L180 202.9 L160 205.0 L140 206.4 L120 207.0 L100 206.8 L80 205.8 L60 204.0 L40 201.7 L20 199.0 L0 196.0 Z" dur="9s" repeatCount="indefinite"/>
    </path>
    <circle cx="20.1" cy="154.1" r="1.08" fill="#FBF0DA"><animate attributeName="opacity" values="0.1;0.9;0.1" dur="2.63s" begin="2.19s" repeatCount="indefinite"/></circle><circle cx="71.7" cy="118.6" r="1.31" fill="#FBF0DA"><animate attributeName="opacity" values="0.1;0.9;0.1" dur="4.77s" begin="2.42s" repeatCount="indefinite"/></circle><circle cx="137.9" cy="93.0" r="1.90" fill="#FBF0DA"><animate attributeName="opacity" values="0.1;0.9;0.1" dur="4.07s" begin="1.93s" repeatCount="indefinite"/></circle><circle cx="892.0" cy="71.8" r="1.14" fill="#FBF0DA"><animate attributeName="opacity" values="0.1;0.9;0.1" dur="4.51s" begin="1.00s" repeatCount="indefinite"/></circle><circle cx="166.5" cy="60.6" r="1.26" fill="#FBF0DA"><animate attributeName="opacity" values="0.1;0.9;0.1" dur="2.88s" begin="2.81s" repeatCount="indefinite"/></circle><circle cx="862.7" cy="24.8" r="1.06" fill="#FBF0DA"><animate attributeName="opacity" values="0.1;0.9;0.1" dur="3.68s" begin="1.53s" repeatCount="indefinite"/></circle><circle cx="892.6" cy="24.2" r="1.18" fill="#FBF0DA"><animate attributeName="opacity" values="0.1;0.9;0.1" dur="3.03s" begin="1.99s" repeatCount="indefinite"/></circle><circle cx="907.4" cy="93.2" r="0.92" fill="#FBF0DA"><animate attributeName="opacity" values="0.1;0.9;0.1" dur="3.22s" begin="0.85s" repeatCount="indefinite"/></circle><circle cx="890.2" cy="84.7" r="1.82" fill="#FBF0DA"><animate attributeName="opacity" values="0.1;0.9;0.1" dur="3.91s" begin="1.90s" repeatCount="indefinite"/></circle><circle cx="862.5" cy="32.7" r="1.76" fill="#FBF0DA"><animate attributeName="opacity" values="0.1;0.9;0.1" dur="2.23s" begin="1.22s" repeatCount="indefinite"/></circle><circle cx="167.4" cy="27.7" r="2.00" fill="#FBF0DA"><animate attributeName="opacity" values="0.1;0.9;0.1" dur="2.66s" begin="1.90s" repeatCount="indefinite"/></circle><circle cx="158.5" cy="84.6" r="1.47" fill="#FBF0DA"><animate attributeName="opacity" values="0.1;0.9;0.1" dur="2.41s" begin="2.77s" repeatCount="indefinite"/></circle><circle cx="869.2" cy="149.6" r="1.85" fill="#FBF0DA"><animate attributeName="opacity" values="0.1;0.9;0.1" dur="4.72s" begin="2.28s" repeatCount="indefinite"/></circle><circle cx="284.4" cy="17.6" r="1.02" fill="#FBF0DA"><animate attributeName="opacity" values="0.1;0.9;0.1" dur="2.23s" begin="0.00s" repeatCount="indefinite"/></circle><circle cx="866.8" cy="51.3" r="1.19" fill="#FBF0DA"><animate attributeName="opacity" values="0.1;0.9;0.1" dur="4.68s" begin="0.36s" repeatCount="indefinite"/></circle><circle cx="489.7" cy="16.4" r="1.89" fill="#FBF0DA"><animate attributeName="opacity" values="0.1;0.9;0.1" dur="3.91s" begin="2.77s" repeatCount="indefinite"/></circle><circle cx="40.2" cy="151.0" r="0.94" fill="#FBF0DA"><animate attributeName="opacity" values="0.1;0.9;0.1" dur="4.91s" begin="1.70s" repeatCount="indefinite"/></circle><circle cx="233.9" cy="47.3" r="1.43" fill="#FBF0DA"><animate attributeName="opacity" values="0.1;0.9;0.1" dur="2.16s" begin="2.31s" repeatCount="indefinite"/></circle><circle cx="498.3" cy="20.9" r="0.84" fill="#FBF0DA"><animate attributeName="opacity" values="0.1;0.9;0.1" dur="4.76s" begin="0.39s" repeatCount="indefinite"/></circle><circle cx="55.6" cy="148.5" r="1.82" fill="#FBF0DA"><animate attributeName="opacity" values="0.1;0.9;0.1" dur="4.98s" begin="2.86s" repeatCount="indefinite"/></circle><circle cx="754.3" cy="78.9" r="1.02" fill="#FBF0DA"><animate attributeName="opacity" values="0.1;0.9;0.1" dur="4.18s" begin="2.65s" repeatCount="indefinite"/></circle><circle cx="974.4" cy="110.9" r="1.83" fill="#FBF0DA"><animate attributeName="opacity" values="0.1;0.9;0.1" dur="4.75s" begin="0.60s" repeatCount="indefinite"/></circle><circle cx="639.4" cy="36.3" r="1.35" fill="#FBF0DA"><animate attributeName="opacity" values="0.1;0.9;0.1" dur="3.67s" begin="2.31s" repeatCount="indefinite"/></circle><circle cx="927.9" cy="88.3" r="0.94" fill="#FBF0DA"><animate attributeName="opacity" values="0.1;0.9;0.1" dur="3.34s" begin="0.50s" repeatCount="indefinite"/></circle><circle cx="740.8" cy="19.9" r="1.09" fill="#FBF0DA"><animate attributeName="opacity" values="0.1;0.9;0.1" dur="3.63s" begin="0.61s" repeatCount="indefinite"/></circle><circle cx="246.3" cy="114.9" r="1.26" fill="#FBF0DA"><animate attributeName="opacity" values="0.1;0.9;0.1" dur="2.23s" begin="2.32s" repeatCount="indefinite"/></circle><circle cx="810.0" cy="153.3" r="1.88" fill="#FBF0DA"><animate attributeName="opacity" values="0.1;0.9;0.1" dur="4.04s" begin="2.88s" repeatCount="indefinite"/></circle><circle cx="44.2" cy="130.3" r="1.48" fill="#FBF0DA"><animate attributeName="opacity" values="0.1;0.9;0.1" dur="4.17s" begin="2.69s" repeatCount="indefinite"/></circle><circle cx="55.5" cy="36.4" r="0.80" fill="#FBF0DA"><animate attributeName="opacity" values="0.1;0.9;0.1" dur="2.32s" begin="0.25s" repeatCount="indefinite"/></circle><circle cx="29.1" cy="106.8" r="1.93" fill="#FBF0DA"><animate attributeName="opacity" values="0.1;0.9;0.1" dur="2.58s" begin="0.40s" repeatCount="indefinite"/></circle><circle cx="214.1" cy="117.2" r="1.02" fill="#FBF0DA"><animate attributeName="opacity" values="0.1;0.9;0.1" dur="3.37s" begin="2.98s" repeatCount="indefinite"/></circle><circle cx="763.4" cy="75.5" r="1.24" fill="#FBF0DA"><animate attributeName="opacity" values="0.1;0.9;0.1" dur="2.18s" begin="0.69s" repeatCount="indefinite"/></circle><circle cx="795.3" cy="162.2" r="0.90" fill="#FBF0DA"><animate attributeName="opacity" values="0.1;0.9;0.1" dur="4.78s" begin="1.53s" repeatCount="indefinite"/></circle><circle cx="137.3" cy="47.5" r="1.48" fill="#FBF0DA"><animate attributeName="opacity" values="0.1;0.9;0.1" dur="2.51s" begin="0.23s" repeatCount="indefinite"/></circle>
  </g>
  <text x="500" y="62" text-anchor="middle" font-family="'Segoe UI', -apple-system, 'Helvetica Neue', Helvetica, Arial, sans-serif" font-size="13" font-weight="700" fill="#D99A2B" letter-spacing="6">HI, I'M</text>
  <text x="500" y="118" text-anchor="middle" font-family="'Segoe UI', -apple-system, 'Helvetica Neue', Helvetica, Arial, sans-serif" font-size="60" font-weight="800" fill="#FBF0DA" filter="url(#hd-glow)">Tayfun Danabas</text>
  <g clip-path="url(#hd-type)">
    <text x="280" y="162" font-family="Consolas, 'SFMono-Regular', Menlo, 'Liberation Mono', 'Courier New', monospace" font-size="20" fill="#FBF0DA" textLength="440" lengthAdjust="spacingAndGlyphs">&gt; Fullstack Developer · Herne, Germany</text>
  </g>
  <rect x="280" y="146" width="10" height="20" fill="#D99A2B">
    <animate attributeName="x" values="280;724;724;280" keyTimes="0;0.32;0.86;1" dur="9s" repeatCount="indefinite"/>
    <animate attributeName="opacity" values="1;1;0;0" keyTimes="0;0.5;0.5;1" dur="1s" repeatCount="indefinite"/>
  </rect>
</svg>
